<svg id="Calque_1" data-name="Calque 1" xmlns="http://www.w3.org/2000/svg" xmlns:xlink="http://www.w3.org/1999/xlink" viewBox="0 0 322.82 329"><defs><style>.cls-1{fill:none;}.cls-2{opacity:0.98;}.cls-3{fill:red;}.cls-4{fill:#f7931e;}.cls-5{fill:#fcee21;}.cls-6{fill:#8cc63f;}.cls-7{fill:#29abe2;}.cls-8{fill:#0071bc;}.cls-9{fill:#662d91;}.cls-10{fill:#cc1f1f;}.cls-11{fill:#c47518;}.cls-12{fill:#c9be1a;}.cls-13{fill:#68932f;}.cls-14{fill:#2084af;}.cls-15{fill:#005289;}.cls-16{fill:#421d5e;}.cls-17{clip-path:url(#clip-path);}.cls-18{font-size:28.99px;fill:#494a4c;font-family:HelveticaNeue-Light, Helvetica Neue;}.cls-19{fill:#318ad1;}</style><clipPath id="clip-path" transform="translate(-350.59 -208)"><rect class="cls-1" x="350.59" y="375.48" width="322.82" height="78.84"/></clipPath></defs><title>RIG logo2</title><g class="cls-2"><path class="cls-3" d="M425.29,370H390V218.9A10.9,10.9,0,0,1,400.9,208h24.39Z" transform="translate(-350.59 -208)"/><rect class="cls-4" x="74.7" width="35.29" height="161.97"/><rect class="cls-5" x="109.98" width="35.29" height="161.97"/><rect class="cls-6" x="145.27" width="35.29" height="161.97"/><rect class="cls-7" x="180.55" width="35.29" height="161.97"/><rect class="cls-8" x="215.84" width="35.28" height="161.97"/><path class="cls-9" d="M637,370H601.71V208H623a14,14,0,0,1,14,14Z" transform="translate(-350.59 -208)"/><path class="cls-3" d="M425.6,502.4l-18.69,0c-9.32,0-16.86-6.86-16.8-15.27l.21-28.54h35Z" transform="translate(-350.59 -208)"/><rect class="cls-4" x="74.7" y="250.54" width="35.92" height="43.83"/><rect class="cls-5" x="109.98" y="250.54" width="35.29" height="43.83"/><rect class="cls-6" x="145.27" y="250.54" width="35.29" height="43.83"/><rect class="cls-7" x="180.55" y="250.54" width="35.29" height="43.83"/><rect class="cls-8" x="215.84" y="250.54" width="35.28" height="43.83"/><path class="cls-9" d="M620.27,502.37H601.71V458.54H637v35.27C637,498.54,629.51,502.37,620.27,502.37Z" transform="translate(-350.59 -208)"/><path class="cls-10" d="M390,537H425.3" transform="translate(-350.59 -208)"/><path class="cls-11" d="M425.3,537h35.28" transform="translate(-350.59 -208)"/><path class="cls-12" d="M460.58,537h35.28" transform="translate(-350.59 -208)"/><path class="cls-13" d="M495.86,537h35.28" transform="translate(-350.59 -208)"/><path class="cls-14" d="M531.14,537h35.28" transform="translate(-350.59 -208)"/><path class="cls-15" d="M566.42,537h35.27" transform="translate(-350.59 -208)"/><path class="cls-16" d="M601.69,537H637" transform="translate(-350.59 -208)"/></g><g id="Objet_dynamique_vectoriel" data-name="Objet dynamique vectoriel" class="cls-2"><g class="cls-17"><g class="cls-17"><text class="cls-18" transform="translate(0.3 237.48)">Industries</text><text class="cls-18" transform="translate(134.29 237.48)">Graphiques</text><path class="cls-19" d="M383.44,395.86c-2,4-5.23,5.28-7.27,6.17.93,1.47,1.81,2.93,2.74,4.4,3.83,6.3,6.57,10.82,10.29,14.64-2.33-.19-4.71-.38-7-.38s-3.82.19-6,.38c-.35-.95-.64-1.91-1.05-2.86-1.39-3.31-5-9.3-7.5-13.38h-6.49c0,3.51,0,6.88.23,10.7a12.64,12.64,0,0,0,1.34,5.54,42.43,42.43,0,0,0-4.86-.31c-2,0-4.13.12-6.11.31.47-.63,1.11-1.65,1.11-7.89s-.23-25.09-.35-27.7c-.35-7-1.22-8.85-1.86-10,.7.06,1.57.19,2.73.25a45.15,45.15,0,0,0,4.65.19c1.4,0,3.73-.06,6-.12s4.42-.13,5.47-.13c4.07,0,9.13.19,12.56,3.95a13.74,13.74,0,0,1,3.08,9.17,15.06,15.06,0,0,1-1.63,7.07m-10.05-12.55c-1.68-1.91-6.19-1.91-12.24-1.91-.17,8.28-.17,9.17-.23,16.94.93,0,1.92.06,2.85.06,4,0,11.37-.44,11.37-8.79,0-3.24-.82-5.28-1.75-6.3" transform="translate(-350.59 -208)"/><path class="cls-19" d="M413.1,406.72V395.78c0-7.91-.94-8.29-1.51-8.62,1.56.14,3.08.24,4.64.24s3.13-.15,4.69-.24a3.58,3.58,0,0,0-1.33,2.75,66.82,66.82,0,0,0-.38,8.85v8.86c0,3.6-.09,6.54-1,8.48-2,4.31-7.86,5.16-13,5.16-3.46,0-6.72-.33-9.33-1.56-4.59-2.23-4.78-6-4.78-10-.05-2.85-.05-5.31-.05-9.38,0-2.28,0-8.48-.24-10.33a4,4,0,0,0-1.28-2.84c2.23.19,4.12.24,6.21.24a35.71,35.71,0,0,0,4.5-.24c-.38.71-1.52,1.42-1.52,7.82v14c0,3.51.38,6.78,7.11,6.78,6.34,0,7.24-2.65,7.24-9" transform="translate(-350.59 -208)"/><path class="cls-19" d="M433.28,392.56c-2.18,0-3.83-.05-5-.05-4,0-5,.71-6.11,1.56.09-1.32.14-2.36.14-3.55s0-2.27-.14-3.41c2.51.19,8.19.62,14.82.52,5.5,0,10.8-.14,15.4-.52a31.13,31.13,0,0,0-.19,3.37c0,1.13.09,2.6.19,3.74-1.66-1.28-2.84-1.66-6.44-1.66h-4.74c0,4.22-.05,8.43-.1,12.6v4.07c0,2.89.05,4.74.15,5.83.14,3,.52,4.45,1.47,6-1.71-.15-3.46-.29-5.17-.29-1.94,0-3.84.14-5.78.29a5.2,5.2,0,0,0,1.28-3.18c.33-2.56.33-9.94.33-11.46,0-4.59,0-9.24-.14-13.83" transform="translate(-350.59 -208)"/><path class="cls-19" d="M476.29,400.85c0-3.51-.05-6.35-.19-8.86a17.67,17.67,0,0,0-.9-4.83,44.53,44.53,0,0,0,5,.33,43.51,43.51,0,0,0,5-.33,15.71,15.71,0,0,0-.94,5.07c-.19,2.65-.29,5.59-.29,9.23,0,1,0,10.33.33,14.88a10.16,10.16,0,0,0,1,4.64c-1.76-.1-3.46-.19-5.17-.19s-3.31.09-5,.19c.85-1.42,1.18-1.9,1.18-14.92H463.26v6.49c0,6.53.76,7.34,1.38,8.43-1.71-.14-3.41-.24-5.07-.24s-3.41.14-5.26.24c.43-.81,1.33-2.13,1.33-8.91.09-5.54,0-9.85-.14-17.57-.19-6.2-1.28-7-1.43-7.34a51.34,51.34,0,0,0,5.31.33c1.66,0,3.36-.19,5.07-.33a13.42,13.42,0,0,0-.76,3,79.19,79.19,0,0,0-.47,10.66Z" transform="translate(-350.59 -208)"/><path class="cls-19" d="M498.27,401.37c2.46.05,4.92.05,7.34-.14a10.27,10.27,0,0,0,3.64-.76,29.62,29.62,0,0,0-.28,3.36,17.66,17.66,0,0,0,.28,3.18c-.47-.19-.85-.38-1.27-.53a23.3,23.3,0,0,0-6-.47c-1.28,0-2.56.05-3.89.05v5.44c.05,4.79.52,4.79,4.83,4.79,5.36,0,7.63-.38,9.81-2.37a51.67,51.67,0,0,0-1.23,7.11c-3.41-.19-6.63-.43-11.94-.43-4.07,0-7,.14-10.37.43a8,8,0,0,0,1.18-3.75c.15-1.94.19-10.94.19-14.54,0-13.21-1.28-14.35-2-15.72a86.6,86.6,0,0,0,10.71.47,104.5,104.5,0,0,0,12.12-.47,37.73,37.73,0,0,0-.33,6.44c-1.47-1-2.08-1.28-6.3-1.28-1.51,0-3.83,0-6.53.05Z" transform="translate(-350.59 -208)"/><path class="cls-19" d="M541.84,402.27a10.35,10.35,0,0,1-5.92,4.59c.76,1.09,1.47,2.18,2.23,3.27,3.12,4.69,5.35,8.05,8.38,10.9-1.9-.15-3.84-.29-5.73-.29s-3.6.14-5.4.29c-.29-.71-.52-1.42-.85-2.14a96.63,96.63,0,0,0-6.11-9.94H524.6c0,2.6,0,5.11.19,8a8.68,8.68,0,0,0,1.09,4.12c-1.66-.15-3.31-.24-4.93-.24s-3.36.09-5,.24c.38-.48.9-1.24.9-5.88s-.19-18.66-.28-20.6c-.29-5.21-1-6.59-1.52-7.44.57.05,1.28.14,2.23.19s2.22.14,3.79.14c1.13,0,3,0,4.87-.09s3.6-.1,4.45-.1c3.32,0,7.44.15,10.24,2.94a9.68,9.68,0,0,1,2.51,6.82,10.42,10.42,0,0,1-1.33,5.26m-8.67-9.33c-1.37-1.42-3.6-1.42-8.52-1.42-.14,6.15-.14,6.82-.19,12.6.75,0,1.56,0,2.32,0,3.27,0,7.81-.33,7.81-6.53,0-2.42-.66-3.93-1.42-4.69" transform="translate(-350.59 -208)"/><path class="cls-19" d="M556.47,402.32a87.71,87.71,0,0,0,8.87-.15,4.19,4.19,0,0,0,3-1.09c-.15,1.62-.24,3.08-.24,4.22a20.51,20.51,0,0,0,.24,3,13,13,0,0,0-4.22-1c-1.7-.15-3.5-.15-7.63-.1,0,5.35,0,7.25.1,9.19a14,14,0,0,0,1,4.69,32.91,32.91,0,0,0-4.79-.43,46.33,46.33,0,0,0-5.11.43,4.58,4.58,0,0,0,.8-1.94c.47-2.42.47-7.91.47-16.53,0-14.16-1.37-14.83-1.94-15.59,4.5.38,9,.43,13.55.43,4.88,0,6.77-.19,9.85-.43a21.07,21.07,0,0,0-.42,4.17c0,.81,0,1.66.09,2.47-1.61-1.23-2.84-1.42-6.82-1.42h-6.78Z" transform="translate(-350.59 -208)"/><path class="cls-19" d="M599.72,391.33c4,4,4.55,9.57,4.55,13,0,1.76,0,8.15-4.6,12.65a16.22,16.22,0,0,1-11.41,4.31,17.6,17.6,0,0,1-8-1.89c-5.07-2.7-8-7.63-8-15.35,0-12.13,7.81-17.24,15.91-17.24a16.1,16.1,0,0,1,11.56,4.5m-4.92,4a6.61,6.61,0,0,0-6.54-4c-7.34,0-7.87,7.44-7.87,12.88,0,7.15,1.42,12.7,8,12.7a6.66,6.66,0,0,0,6.59-4.26c1.09-2.47,1.28-6.35,1.28-8.29,0-2.7-.34-6.59-1.42-9" transform="translate(-350.59 -208)"/><path class="cls-19" d="M633,402.27a10.35,10.35,0,0,1-5.92,4.59c.76,1.09,1.46,2.18,2.22,3.27,3.13,4.69,5.35,8.05,8.39,10.9-1.9-.15-3.84-.29-5.73-.29s-3.6.14-5.4.29c-.29-.71-.53-1.42-.86-2.14a96.4,96.4,0,0,0-6.1-9.94h-3.84c0,2.6,0,5.11.19,8a8.68,8.68,0,0,0,1.09,4.12c-1.66-.15-3.32-.24-4.93-.24s-3.36.09-5,.24c.38-.48.9-1.24.9-5.88s-.19-18.66-.29-20.6c-.28-5.21-1-6.59-1.51-7.44.56.05,1.28.14,2.22.19s2.23.14,3.79.14c1.14,0,3,0,4.88-.09s3.6-.1,4.45-.1c3.32,0,7.44.15,10.23,2.94a9.64,9.64,0,0,1,2.52,6.82,10.42,10.42,0,0,1-1.33,5.26m-8.67-9.33c-1.37-1.42-3.6-1.42-8.53-1.42-.14,6.15-.14,6.82-.19,12.6.76,0,1.57,0,2.33,0,3.26,0,7.81-.33,7.81-6.53,0-2.42-.66-3.93-1.42-4.69" transform="translate(-350.59 -208)"/><path class="cls-19" d="M670.85,420c-4,7.87-10.43,9.17-18.33,9.17-2.33,0-4.66-.11-7-.11-1.61,0-2.89.06-4,.11s-2.06.18-3.12.3c1.06-2.84,1.73-4.68,1.73-17.64,0-21-1-22.32-1.67-24.87,1.06.12,2,.24,3.11.3s2.39.11,4,.11c2.34,0,4.68-.11,7-.11,8.34,0,14.27.59,18.33,8.82a26.88,26.88,0,0,1,2.5,12.08A26.16,26.16,0,0,1,670.85,420m-18.79-26.88a26.93,26.93,0,0,0-4,.35c0,4.27-.12,11.55,0,20.43,0,8.58,0,9.65,4,9.65,5.5,0,10.28-1.07,11.5-10a38.62,38.62,0,0,0,.34-5.15c0-12.19-3.89-15.27-11.79-15.27" transform="translate(-350.59 -208)"/></g></g></g></svg>